HIERARCHY
ROOT Junyuan_V1:Solving:Hips
{
	OFFSET 0.000000 0.000000 0.000000
	CHANNELS 6 Xposition Yposition Zposition Xrotation Yrotation Zrotation
	JOINT Junyuan_V1:Solving:Spine
	{
		OFFSET 0.000000 -12.985630 2.462989
		CHANNELS 6 Xposition Yposition Zposition Xrotation Yrotation Zrotation
		JOINT Junyuan_V1:Solving:Spine1
		{
			OFFSET 0.000000 -8.692390 1.532706
			CHANNELS 6 Xposition Yposition Zposition Xrotation Yrotation Zrotation
			JOINT Junyuan_V1:Solving:Spine2
			{
				OFFSET 0.000000 -8.792902 0.769282
				CHANNELS 6 Xposition Yposition Zposition Xrotation Yrotation Zrotation
				JOINT Junyuan_V1:Solving:Spine3
				{
					OFFSET 0.000000 -8.826483 0.000000
					CHANNELS 6 Xposition Yposition Zposition Xrotation Yrotation Zrotation
					JOINT Junyuan_V1:Solving:Neck
					{
						OFFSET 0.000000 -11.348343 -1.134832
						CHANNELS 6 Xposition Yposition Zposition Xrotation Yrotation Zrotation
						JOINT Junyuan_V1:Solving:Neck1
						{
							OFFSET 0.000000 -7.624485 -0.667056
							CHANNELS 6 Xposition Yposition Zposition Xrotation Yrotation Zrotation
							JOINT Junyuan_V1:Solving:Head
							{
								OFFSET 0.000000 -7.537346 -1.329035
								CHANNELS 6 Xposition Yposition Zposition Xrotation Yrotation Zrotation
								JOINT Junyuan_V1:Solving:HeadEnd
								{
									OFFSET 0.000000 -9.728073 0.000003
									CHANNELS 6 Xposition Yposition Zposition Xrotation Yrotation Zrotation
									End Site
									{
										OFFSET 0.000000 -9.728081 0.000002
									}
								}
							}
						}
					}
					JOINT Junyuan_V1:Solving:RightShoulder
					{
						OFFSET 0.000000 -8.105961 -5.517343
						CHANNELS 6 Xposition Yposition Zposition Xrotation Yrotation Zrotation
						JOINT Junyuan_V1:Solving:RightArm
						{
							OFFSET -18.898018 -0.000008 0.000000
							CHANNELS 6 Xposition Yposition Zposition Xrotation Yrotation Zrotation
							JOINT Junyuan_V1:Solving:RightForeArm
							{
								OFFSET -28.740982 -0.000008 0.000000
								CHANNELS 6 Xposition Yposition Zposition Xrotation Yrotation Zrotation
								JOINT Junyuan_V1:Solving:RightHand
								{
									OFFSET -20.953522 -0.000008 0.000000
									CHANNELS 6 Xposition Yposition Zposition Xrotation Yrotation Zrotation
									JOINT Junyuan_V1:Solving:RightHandThumb1
									{
										OFFSET -4.628059 2.916191 -3.441377
										CHANNELS 6 Xposition Yposition Zposition Xrotation Yrotation Zrotation
										End Site
										{
											OFFSET -6.617699 -0.000004 -6.678891
										}
									}
									JOINT Junyuan_V1:Solving:RightHandMiddle1
									{
										OFFSET -12.341492 -0.000004 0.079112
										CHANNELS 6 Xposition Yposition Zposition Xrotation Yrotation Zrotation
										End Site
										{
											OFFSET -9.402214 -0.000004 0.000000
										}
									}
								}
							}
						}
					}
					JOINT Junyuan_V1:Solving:LeftShoulder
					{
						OFFSET 0.000000 -8.105961 -5.517343
						CHANNELS 6 Xposition Yposition Zposition Xrotation Yrotation Zrotation
						JOINT Junyuan_V1:Solving:LeftArm
						{
							OFFSET 18.898018 -0.000008 0.000000
							CHANNELS 6 Xposition Yposition Zposition Xrotation Yrotation Zrotation
							JOINT Junyuan_V1:Solving:LeftForeArm
							{
								OFFSET 28.740982 -0.000008 0.000000
								CHANNELS 6 Xposition Yposition Zposition Xrotation Yrotation Zrotation
								JOINT Junyuan_V1:Solving:LeftHand
								{
									OFFSET 20.953522 -0.000008 0.000000
									CHANNELS 6 Xposition Yposition Zposition Xrotation Yrotation Zrotation
									JOINT Junyuan_V1:Solving:LeftHandThumb1
									{
										OFFSET 4.628059 2.916191 -3.441377
										CHANNELS 6 Xposition Yposition Zposition Xrotation Yrotation Zrotation
										End Site
										{
											OFFSET 6.617699 -0.000004 -6.678891
										}
									}
									JOINT Junyuan_V1:Solving:LeftHandMiddle1
									{
										OFFSET 12.341492 -0.000004 0.079112
										CHANNELS 6 Xposition Yposition Zposition Xrotation Yrotation Zrotation
										End Site
										{
											OFFSET 9.402214 -0.000004 0.000000
										}
									}
								}
							}
						}
					}
				}
			}
		}
	}
	JOINT Junyuan_V1:Solving:RightUpLeg
	{
		OFFSET -11.141669 0.000000 0.000000
		CHANNELS 6 Xposition Yposition Zposition Xrotation Yrotation Zrotation
		JOINT Junyuan_V1:Solving:RightLeg
		{
			OFFSET 0.000000 42.399242 -0.000006
			CHANNELS 6 Xposition Yposition Zposition Xrotation Yrotation Zrotation
			JOINT Junyuan_V1:Solving:RightFoot
			{
				OFFSET 0.000000 39.245022 -0.000006
				CHANNELS 6 Xposition Yposition Zposition Xrotation Yrotation Zrotation
				JOINT Junyuan_V1:Solving:RightForeFoot
				{
					OFFSET 0.000000 3.261009 -0.000000
					CHANNELS 6 Xposition Yposition Zposition Xrotation Yrotation Zrotation
					JOINT Junyuan_V1:Solving:RightToeBase
					{
						OFFSET 0.000000 0.000000 -12.771147
						CHANNELS 6 Xposition Yposition Zposition Xrotation Yrotation Zrotation
						JOINT Junyuan_V1:Solving:RightToeBaseEnd
						{
							OFFSET 0.000000 0.000000 -4.049008
							CHANNELS 6 Xposition Yposition Zposition Xrotation Yrotation Zrotation
							End Site
							{
								OFFSET 0.000000 -4.049011 0.000000
							}
						}
					}
				}
			}
		}
	}
	JOINT Junyuan_V1:Solving:LeftUpLeg
	{
		OFFSET 11.141669 0.000000 0.000000
		CHANNELS 6 Xposition Yposition Zposition Xrotation Yrotation Zrotation
		JOINT Junyuan_V1:Solving:LeftLeg
		{
			OFFSET 0.000000 42.399242 -0.000006
			CHANNELS 6 Xposition Yposition Zposition Xrotation Yrotation Zrotation
			JOINT Junyuan_V1:Solving:LeftFoot
			{
				OFFSET 0.000000 39.245022 -0.000006
				CHANNELS 6 Xposition Yposition Zposition Xrotation Yrotation Zrotation
				JOINT Junyuan_V1:Solving:LeftForeFoot
				{
					OFFSET 0.000000 3.261009 -0.000000
					CHANNELS 6 Xposition Yposition Zposition Xrotation Yrotation Zrotation
					JOINT Junyuan_V1:Solving:LeftToeBase
					{
						OFFSET 0.000000 0.000000 -12.771147
						CHANNELS 6 Xposition Yposition Zposition Xrotation Yrotation Zrotation
						JOINT Junyuan_V1:Solving:LeftToeBaseEnd
						{
							OFFSET 0.000000 0.000000 -2.960146
							CHANNELS 6 Xposition Yposition Zposition Xrotation Yrotation Zrotation
							End Site
							{
								OFFSET 0.000000 -2.960144 0.000002
							}
						}
					}
				}
			}
		}
	}
}
MOTION
Frames: 5
Frame Time: 0.041667
-12.942961 50.359943 -76.706749 68.043431 -185.308660 0.892841 -0.000002 -12.985626 2.462983 13.788082 0.051214 2.484311 0.000000 -8.692388 1.532706 7.561223 -0.278403 1.578018 -0.000003 -8.792911 0.769277 7.728728 0.332966 -0.444291 -0.000001 -8.826495 -0.000000 -4.527280 0.534638 -4.335250 0.000004 -11.348324 -1.134846 -14.022820 -1.050053 3.234196 0.000001 -7.624495 -0.667055 8.467907 2.358814 -0.794823 0.000000 -7.537340 -1.329035 7.383581 0.229445 -0.361238 0.000001 -9.728058 -0.000015 -0.000012 0.000000 -0.000000 -0.000002 -8.105953 -5.517352 0.000003 0.376280 15.196949 -18.898012 0.000014 0.000003 -55.763126 -11.499096 -88.787910 -28.740986 -0.000004 -0.000002 -36.928849 -11.206179 -8.310295 -20.953541 0.000002 0.000009 1.798161 -15.151436 6.849145 -4.628083 2.916198 -3.441366 0.000003 0.000010 0.000000 -12.341485 -0.000004 0.079120 0.000003 0.000007 -0.000001 0.000002 -8.105957 -5.517352 -0.000001 -0.663488 -14.947558 18.898014 0.000007 -0.000013 -63.911979 35.954334 92.471103 28.740952 -0.000008 -0.000002 -57.041130 3.241516 4.984062 20.953497 0.000008 0.000002 2.923430 16.394810 -10.255451 4.628078 2.916201 -3.441359 -0.000004 -0.000007 0.000004 12.341493 -0.000009 0.079124 -0.000004 -0.000003 0.000001 -11.141672 0.000005 -0.000011 -68.358446 20.682378 25.685399 0.000005 42.399239 -0.000024 62.158792 0.000003 -0.000004 -0.000009 39.245003 -0.000004 -17.998810 -3.622412 -13.757293 -0.000003 3.261002 -0.000004 -0.000000 0.000002 0.000001 -0.000001 0.000002 -12.771153 13.365130 0.000003 -0.000001 -0.000005 -0.000006 -4.049016 0.000007 -0.000005 0.000002 11.141667 0.000004 -0.000010 -69.944928 -26.698960 -21.551299 -0.000007 42.399250 -0.000010 55.748086 -0.000008 -0.000001 -0.000006 39.245033 -0.000005 -13.500186 -14.173886 -13.612290 -0.000007 3.261009 -0.000002 -0.000000 0.000002 -0.000000 -0.000002 -0.000004 -12.771145 3.117439 0.000002 -0.000000 0.000007 0.000000 -2.960150 0.000000 -0.000005 -0.000002 
-13.052242 50.301140 -76.872986 68.104315 -185.178272 0.737084 0.000001 -12.985600 2.462968 13.799029 0.066358 2.357165 -0.000001 -8.692385 1.532694 7.486119 -0.251245 1.500946 -0.000002 -8.792907 0.769295 7.612556 0.358884 -0.396859 0.000001 -8.826494 -0.000005 -4.437890 0.585281 -4.062588 0.000004 -11.348339 -1.134835 -13.985705 -1.211694 2.966908 -0.000005 -7.624476 -0.667040 8.470068 2.356609 -0.721731 -0.000002 -7.537354 -1.329042 7.462863 0.224448 -0.322433 0.000001 -9.728088 0.000026 -0.000003 -0.000000 0.000000 0.000008 -8.105961 -5.517336 0.000002 0.154121 14.987447 -18.898018 -0.000017 0.000008 -55.816128 -11.520037 -88.818632 -28.740965 -0.000006 0.000002 -36.798003 -11.146526 -8.228524 -20.953537 0.000002 -0.000003 1.823587 -15.194082 6.926275 -4.628058 2.916203 -3.441371 -0.000004 0.000003 0.000001 -12.341470 -0.000007 0.079110 -0.000000 0.000002 -0.000001 0.000011 -8.105957 -5.517343 0.000002 -0.933137 -15.061248 18.898016 -0.000004 0.000006 -63.765799 36.030747 92.458392 28.740976 -0.000001 0.000009 -57.297583 3.210735 4.985522 20.953522 -0.000000 -0.000005 2.902951 16.454918 -10.149571 4.628089 2.916208 -3.441369 0.000004 0.000000 -0.000001 12.341484 -0.000004 0.079114 0.000002 0.000002 -0.000000 -11.141666 0.000015 -0.000014 -68.041238 20.506869 25.579045 0.000002 42.399258 -0.000021 61.753386 -0.000004 -0.000004 0.000002 39.245026 -0.000006 -17.835714 -3.591961 -13.776404 -0.000005 3.261009 0.000007 0.000001 -0.000007 -0.000001 -0.000002 -0.000008 -12.771150 13.445308 0.000001 -0.000003 0.000003 0.000001 -4.049006 0.000003 -0.000001 -0.000000 11.141672 0.000013 -0.000014 -69.567990 -26.944027 -21.415595 0.000002 42.399242 -0.000026 55.379000 -0.000003 -0.000001 -0.000008 39.245029 0.000004 -13.236072 -14.104493 -13.716982 0.000009 3.261009 -0.000000 -0.000001 -0.000002 0.000003 -0.000005 0.000001 -12.771143 3.045304 0.000008 0.000002 0.000004 -0.000000 -2.960144 -0.000001 -0.000006 0.000000 
-13.170536 50.241203 -77.051781 68.190054 -185.061025 0.594690 0.000000 -12.985600 2.462987 13.865946 0.038556 2.214829 -0.000003 -8.692410 1.532705 7.433074 -0.220926 1.405408 0.000003 -8.792894 0.769267 7.446562 0.399952 -0.362022 -0.000000 -8.826491 0.000021 -4.374384 0.640765 -3.803333 -0.000001 -11.348332 -1.134833 -13.933302 -1.377338 2.762889 0.000002 -7.624480 -0.667058 8.498191 2.341605 -0.671906 0.000000 -7.537317 -1.329063 7.539254 0.220935 -0.294558 0.000002 -9.728065 0.000017 -0.000003 0.000000 -0.000000 0.000001 -8.105976 -5.517336 0.000004 -0.051990 14.838740 -18.898014 0.000006 0.000002 -55.821954 -11.525183 -88.847920 -28.740980 -0.000012 -0.000002 -36.801312 -11.101296 -8.196979 -20.953539 -0.000006 0.000010 1.856282 -15.238871 7.029272 -4.628044 2.916197 -3.441385 -0.000003 -0.000003 0.000000 -12.341472 -0.000003 0.079103 0.000002 -0.000005 -0.000003 0.000001 -8.105976 -5.517336 -0.000001 -1.163519 -15.176086 18.898022 -0.000010 -0.000001 -63.641018 35.648369 92.498411 28.740980 -0.000016 0.000006 -57.137702 3.135153 4.839242 20.953516 0.000001 -0.000002 2.850573 16.481006 -9.954821 4.628057 2.916195 -3.441375 0.000002 -0.000003 -0.000003 12.341461 -0.000014 0.079110 -0.000001 -0.000002 -0.000000 -11.141665 0.000004 0.000004 -67.687427 20.350815 25.483103 0.000001 42.399246 -0.000024 61.326117 -0.000004 -0.000004 -0.000000 39.245018 -0.000015 -17.633151 -3.576727 -13.750440 -0.000002 3.261002 0.000000 0.000000 -0.000001 0.000001 0.000001 -0.000006 -12.771152 13.426384 -0.000002 0.000002 0.000000 -0.000007 -4.049013 0.000004 0.000001 0.000002 11.141665 0.000013 0.000004 -69.188805 -27.222834 -21.302020 -0.000005 42.399277 -0.000014 55.009500 -0.000006 -0.000003 0.000006 39.244995 0.000005 -12.973575 -14.019593 -13.850877 0.000002 3.261001 0.000002 0.000000 -0.000002 -0.000002 0.000007 -0.000013 -12.771145 3.030811 -0.000003 0.000001 0.000006 -0.000001 -2.960148 -0.000001 0.000001 -0.000002 
-13.276648 50.183754 -77.239113 68.249313 -184.946660 0.461899 0.000001 -12.985602 2.462969 13.922454 0.026296 2.119721 0.000005 -8.692377 1.532720 7.371224 -0.204157 1.351511 0.000002 -8.792912 0.769293 7.274349 0.363100 -0.399567 -0.000001 -8.826486 0.000006 -4.315979 0.641927 -3.666485 0.000003 -11.348378 -1.134812 -13.844101 -1.470487 2.720802 -0.000003 -7.624486 -0.667042 8.482359 2.334259 -0.627582 0.000001 -7.537356 -1.329058 7.604321 0.217999 -0.271167 0.000003 -9.728073 -0.000003 0.000000 0.000000 -0.000000 0.000002 -8.105968 -5.517344 0.000005 -0.156492 14.803016 -18.898012 0.000003 -0.000003 -55.816456 -11.487979 -88.855215 -28.740980 -0.000006 0.000003 -36.796773 -11.072147 -8.174675 -20.953514 -0.000003 0.000002 1.885141 -15.252699 7.131252 -4.628067 2.916200 -3.441376 0.000006 -0.000000 0.000001 -12.341485 -0.000007 0.079096 0.000002 0.000001 -0.000001 0.000005 -8.105968 -5.517344 0.000001 -1.306859 -15.177336 18.898026 0.000002 0.000016 -63.500856 35.478192 92.545675 28.740978 -0.000009 0.000010 -57.233386 3.087878 4.784101 20.953512 0.000000 0.000001 2.817335 16.513782 -9.822220 4.628066 2.916203 -3.441367 -0.000003 0.000002 -0.000001 12.341475 -0.000006 0.079110 -0.000001 0.000004 -0.000001 -11.141668 0.000028 -0.000020 -67.327292 20.193840 25.358341 0.000003 42.399239 -0.000013 60.861131 -0.000003 -0.000005 0.000002 39.245014 0.000002 -17.427798 -3.533931 -13.768119 0.000002 3.261009 -0.000004 0.000001 0.000006 0.000001 -0.000005 0.000001 -12.771143 13.420611 0.000005 -0.000002 -0.000000 0.000009 -4.049012 0.000004 0.000000 -0.000001 11.141666 0.000039 -0.000023 -68.829216 -27.506056 -21.194816 0.000003 42.399235 -0.000021 54.590003 -0.000016 0.000000 0.000009 39.244987 0.000002 -12.715939 -13.977676 -13.857659 0.000006 3.261009 0.000002 0.000002 -0.000004 0.000001 -0.000005 0.000006 -12.771140 3.172226 0.000002 0.000002 0.000007 -0.000001 -2.960160 -0.000001 0.000003 -0.000003 
-13.386679 50.128983 -77.439255 68.306564 -184.850600 0.316597 -0.000002 -12.985631 2.462985 14.011236 0.004699 2.138561 0.000002 -8.692403 1.532696 7.313827 -0.217090 1.357013 -0.000001 -8.792893 0.769260 7.080711 0.181331 -0.581782 -0.000002 -8.826492 -0.000020 -4.298702 0.522283 -3.807548 0.000003 -11.348327 -1.134853 -13.717055 -1.375915 3.104411 0.000000 -7.624489 -0.667076 8.468401 2.348789 -0.670951 0.000001 -7.537330 -1.329038 7.663864 0.221339 -0.295295 -0.000001 -9.728081 0.000022 -0.000011 0.000000 -0.000000 -0.000003 -8.105949 -5.517369 -0.000000 0.033171 15.005377 -18.898022 -0.000012 0.000007 -55.793503 -11.516890 -88.796824 -28.740973 -0.000011 -0.000001 -36.754713 -11.054922 -8.149971 -20.953529 -0.000005 -0.000005 1.886171 -15.194432 7.161562 -4.628082 2.916208 -3.441361 0.000001 0.000009 0.000001 -12.341492 -0.000000 0.079107 0.000001 0.000004 -0.000000 0.000001 -8.105957 -5.517374 0.000001 -1.138595 -14.928917 18.898020 -0.000009 0.000016 -63.349786 35.379707 92.623485 28.740967 -0.000003 0.000001 -57.467060 3.036995 4.747948 20.953529 -0.000002 -0.000000 2.807063 16.560432 -9.760743 4.628053 2.916205 -3.441369 0.000004 -0.000005 0.000001 12.341485 0.000001 0.079115 0.000000 0.000003 0.000001 -11.141667 -0.000002 -0.000005 -66.969424 20.047285 25.266094 -0.000001 42.399250 -0.000013 60.363279 -0.000004 -0.000003 -0.000004 39.245014 -0.000006 -17.203857 -3.521230 -13.749954 -0.000001 3.261010 -0.000004 0.000001 0.000004 0.000001 -0.000002 0.000009 -12.771144 13.456512 0.000001 0.000000 -0.000003 0.000002 -4.049009 0.000004 -0.000004 -0.000005 11.141667 -0.000000 -0.000003 -68.454642 -27.806400 -21.059714 -0.000002 42.399261 -0.000013 54.165094 -0.000002 -0.000002 0.000002 39.245026 -0.000007 -12.298965 -13.803099 -13.997084 0.000005 3.261009 0.000001 0.000002 0.000004 -0.000001 0.000002 -0.000008 -12.771147 3.074674 -0.000005 -0.000000 0.000003 -0.000000 -2.960149 0.000000 0.000009 -0.000003 
